<svg height="58" viewBox="0 0 58 58" width="58" xmlns="http://www.w3.org/2000/svg"><g fill="none" fill-rule="evenodd"><circle cx="29" cy="29" fill="#62d2a2" fill-rule="nonzero" r="28"/><path d="m29 1c-15.464 0-28 12.536-28 28s12.536 28 28 28 28-12.536 28-28-12.536-28-28-28zm0 50c-12.15.002-22.002-9.846-22.004-21.996-.001-12.151 9.847-22.002 21.997-22.004 5.651-.001 11.085 2.173 15.177 6.07l.68.67c.26.267.51.54.75.82 7.975 9.167 7.009 23.063-2.158 31.038-4.004 3.484-9.134 5.403-14.442 5.402z" fill="#f9e3ae" fill-rule="nonzero"/><path d="m29 51c-12.15 0-22-9.85-22-22h-1.66c-2.209-.007-4.006 1.777-4.013 3.986-.001.243.02.485.063.724 2.588 15.246 17.046 25.507 32.292 22.918 11.734-1.992 20.926-11.184 22.918-22.918.392-2.174-1.052-4.254-3.226-4.646-.236-.043-.475-.064-.714-.064h-1.66c0 12.15-9.85 22-22 22z" fill="#f6d397" fill-rule="nonzero"/><path d="m31 39h-4c-2.209 0-4-1.791-4-4v-12c0-2.209 1.791-4 4-4h4c2.209 0 4 1.791 4 4v12c0 2.209-1.791 4-4 4z" stroke="#faefde" stroke-linecap="round" stroke-linejoin="round" stroke-width="2"/><g fill-rule="nonzero"><path d="m38.899 10.349c.365 0 .718-.201.894-.55.249-.492.051-1.094-.442-1.343-.748-.378-1.522-.717-2.301-1.007-.516-.191-1.094.069-1.286.587-.193.518.069 1.094.587 1.286.71.266 1.416.574 2.1.919.144.073.297.108.448.108z" fill="#8d6c9f"/><path d="m29 0c-15.99 0-29 13.01-29 29s13.01 29 29 29 29-13.01 29-29-13.01-29-29-29zm0 56c-14.888 0-27-12.112-27-27s12.112-27 27-27 27 12.112 27 27-12.112 27-27 27z" fill="#8d6c9f"/><path d="m29 48c-.553 0-1 .447-1 1v2c0 .553.447 1 1 1s1-.447 1-1v-2c0-.553-.447-1-1-1z" fill="#8d6c9f"/><path d="m35.013 48.077c-.143-.534-.69-.852-1.225-.707-.533.143-.85.691-.707 1.225l.518 1.932c.119.447.523.741.965.741.086 0 .173-.011.26-.034.533-.143.85-.691.707-1.225z" fill="#8d6c9f"/><path d="m19.75 45.521c-.479-.276-1.09-.113-1.366.366l-1 1.731c-.276.479-.112 1.09.366 1.366.157.091.329.134.499.134.346 0 .682-.179.867-.5l1-1.731c.277-.478.113-1.089-.366-1.366z" fill="#8d6c9f"/><path d="m39.616 45.888c-.277-.479-.89-.643-1.366-.366-.479.276-.643.888-.366 1.366l1 1.731c.186.321.521.5.867.5.17 0 .342-.043.499-.134.479-.276.643-.888.366-1.366z" fill="#8d6c9f"/><path d="m24.212 47.37c-.531-.144-1.082.173-1.225.707l-.518 1.932c-.143.533.174 1.082.707 1.225.087.023.174.034.26.034.441 0 .846-.294.965-.741l.518-1.932c.143-.533-.174-1.082-.707-1.225z" fill="#8d6c9f"/><path d="m14.15 14.15c4.749-4.748 11.55-6.95 18.188-5.885.543.089 1.058-.283 1.146-.829.088-.545-.284-1.059-.829-1.146-7.272-1.163-14.717 1.244-19.918 6.445-8.967 8.968-8.967 23.56 0 32.527.195.195.451.293.707.293s.512-.098.707-.293c.391-.391.391-1.023 0-1.414-8.188-8.187-8.188-21.509-.001-29.698z" fill="#8d6c9f"/><path d="m45.264 12.736c-.658-.658-1.362-1.282-2.095-1.855-.435-.341-1.063-.264-1.403.171-.341.435-.265 1.062.171 1.403.668.523 1.312 1.094 1.913 1.695 8.188 8.188 8.188 21.511 0 29.699-.391.391-.391 1.023 0 1.414.195.195.451.293.707.293s.512-.098.707-.293c8.966-8.967 8.966-23.559 0-32.527z" fill="#8d6c9f"/></g></g></svg>