<svg height="58" viewBox="0 0 58 58" width="58" xmlns="http://www.w3.org/2000/svg"><g fill="none" fill-rule="evenodd"><g fill-rule="nonzero"><path d="m57 29c0 15.465-12.535 28-28 28s-28-12.535-28-28 12.535-28 28-28 28 12.535 28 28z" fill="#70a1d7"/><path d="m29 1c-15.465 0-28 12.535-28 28s12.535 28 28 28 28-12.535 28-28-12.535-28-28-28zm0 50c-9.891 0-18.566-6.598-21.207-16.133-2.637-9.531 1.41-19.652 9.895-24.738 8.484-5.086 19.32-3.883 26.484 2.941l.68.668c.258.27.508.543.75.82 5.656 6.504 6.996 15.715 3.422 23.562-3.575 7.845-11.403 12.88-20.024 12.88z" fill="#f9e3ae"/><path d="m29 51c-12.148 0-22-9.852-22-22h-1.66c-1.188-.004-2.316.52-3.078 1.43s-1.082 2.113-.871 3.281c2.285 13.461 13.949 23.312 27.605 23.312s25.316-9.852 27.605-23.312c.207-1.168-.109-2.367-.871-3.277-.757-.911-1.882-1.434-3.07-1.434h-1.66c0 12.148-9.852 22-22 22z" fill="#f6d397"/><path d="m38.898 10.352c.461-.004.863-.32.969-.77.105-.449-.105-.91-.516-1.121-.75-.375-1.516-.711-2.301-1-.34-.152-.734-.102-1.023.129-.293.23-.434.605-.363.969.066.363.332.66.688.77.715.27 1.414.578 2.098.922.14.065.296.101.448.101z" fill="#8d6c9f"/><path d="m29 0c-16.016 0-29 12.984-29 29s12.984 29 29 29 29-12.984 29-29-12.984-29-29-29zm0 56c-14.91 0-27-12.09-27-27s12.09-27 27-27 27 12.09 27 27-12.09 27-27 27z" fill="#8d6c9f"/><path d="m29 48c-.551 0-1 .449-1 1v2c0 .551.449 1 1 1s1-.449 1-1v-2c0-.551-.449-1-1-1z" fill="#8d6c9f"/><path d="m35 48.078c-.156-.512-.695-.812-1.215-.672-.523.141-.836.668-.715 1.195l.52 1.93c.148.535.699.852 1.234.703.535-.145.852-.699.707-1.234z" fill="#8d6c9f"/><path d="m19.75 45.52c-.23-.133-.504-.168-.762-.102-.258.07-.477.242-.609.473l-1 1.73c-.195.309-.207.703-.027 1.023s.52.516.887.512.703-.211.871-.535l1-1.73c.137-.23.172-.504.105-.762-.067-.254-.235-.477-.465-.609z" fill="#8d6c9f"/><path d="m39.621 45.891c-.172-.324-.508-.531-.875-.535-.367-.008-.707.191-.887.512-.176.32-.168.711.031 1.023l1 1.73c.168.324.504.531.871.535s.707-.191.887-.512.168-.715-.027-1.023z" fill="#8d6c9f"/><path d="m24.211 47.371c-.535-.141-1.078.176-1.223.707l-.519 1.922c-.105.348-.016.73.242.992.254.262.633.363.984.266s.621-.383.703-.738l.523-1.93c.138-.531-.179-1.078-.71-1.219z" fill="#8d6c9f"/><path d="m14.148 14.148c4.777-4.754 11.535-6.937 18.191-5.879.551.09 1.07-.289 1.16-.84s-.289-1.07-.84-1.16c-9.859-1.602-19.629 3.344-24.176 12.242-4.542 8.895-2.823 19.708 4.255 26.759.398.34.988.316 1.359-.051.371-.371.391-.961.051-1.359-8.207-8.204-8.207-21.508 0-29.712z" fill="#8d6c9f"/><path d="m45.262 12.738c-.66-.66-1.359-1.281-2.09-1.859-.438-.289-1.023-.195-1.344.215-.324.414-.273 1.004.113 1.355.668.527 1.305 1.098 1.91 1.699 8.199 8.203 8.199 21.5 0 29.703-.285.242-.41.625-.324.992.09.363.375.648.738.738.367.086.75-.035.996-.32 8.977-8.984 8.977-23.538.001-32.523z" fill="#8d6c9f"/></g><path d="m35.804 39.01c1.8787198 0 3.402-1.5232802 3.402-3.402v-13.206c0-1.8787198-1.5232802-3.402-3.402-3.402h-4.402c-1.8787198 0-3.402 1.5232802-3.402 3.402v13.206c0 1.8787198 1.5232802 3.402 3.402 3.402z" stroke="#fff8ed" stroke-width="2"/><path d="m24.9509476 38.0072255h-2v-19c.004-.406-.242-.773-.617-.93s-.809-.07-1.094.219l-4 4c-.34.398-.316.988.055 1.359.367.367.961.391 1.355.051l2.301-2.289v16.59h-2c-.551 0-1 .449-1 1s.449 1 1 1h6c.551 0 1-.449 1-1s-.449-1-1-1z" fill="#fff8ee" fill-rule="nonzero"/></g></svg>