<?xml version="1.0" encoding="UTF-8"?>
<svg width="58px" height="58px" viewBox="0 0 58 58" version="1.1" xmlns="http://www.w3.org/2000/svg" xmlns:xlink="http://www.w3.org/1999/xlink">
    <!-- Generator: Sketch 53.2 (72643) - https://sketchapp.com -->
    <title>4</title>
    <desc>Created with Sketch.</desc>
    <g id="Page-1" stroke="none" stroke-width="1" fill="none" fill-rule="evenodd">
        <g id="4" fill-rule="nonzero">
            <path d="M57,29 C57,44.465 44.465,57 29,57 C13.535,57 1,44.465 1,29 C1,13.535 13.535,1 29,1 C44.465,1 57,13.535 57,29 Z" id="Path" fill="#FFCAB0"></path>
            <path d="M29,1 C13.535,1 1,13.535 1,29 C1,44.465 13.535,57 29,57 C44.465,57 57,44.465 57,29 C57,13.535 44.465,1 29,1 Z M29,51 C19.109,51 10.434,44.402 7.793,34.867 C5.156,25.336 9.203,15.215 17.688,10.129 C26.172,5.043 37.008,6.246 44.172,13.07 L44.852,13.738 C45.11,14.008 45.36,14.281 45.602,14.558 C51.258,21.062 52.598,30.273 49.024,38.12 C45.449,45.965 37.621,51 29,51 Z" id="Shape" fill="#F9E3AE"></path>
            <path d="M29,51 C16.852,51 7,41.148 7,29 L5.34,29 C4.152,28.996 3.024,29.52 2.262,30.43 C1.5,31.34 1.18,32.543 1.391,33.711 C3.676,47.172 15.34,57.023 28.996,57.023 C42.652,57.023 54.312,47.171 56.601,33.711 C56.808,32.543 56.492,31.344 55.73,30.434 C54.973,29.523 53.848,29 52.66,29 L51,29 C51,41.148 41.148,51 29,51 Z" id="Path" fill="#F6D397"></path>
            <path d="M38.898,10.352 C39.359,10.348 39.761,10.032 39.867,9.582 C39.972,9.133 39.762,8.672 39.351,8.461 C38.601,8.086 37.835,7.75 37.05,7.461 C36.71,7.309 36.316,7.359 36.027,7.59 C35.734,7.82 35.593,8.195 35.664,8.559 C35.73,8.922 35.996,9.219 36.352,9.329 C37.067,9.599 37.766,9.907 38.45,10.251 C38.59,10.316 38.746,10.352 38.898,10.352 Z" id="Path" fill="#8D6C9F"></path>
            <path d="M29,0 C12.984,0 0,12.984 0,29 C0,45.016 12.984,58 29,58 C45.016,58 58,45.016 58,29 C58,12.984 45.016,0 29,0 Z M29,56 C14.09,56 2,43.91 2,29 C2,14.09 14.09,2 29,2 C43.91,2 56,14.09 56,29 C56,43.91 43.91,56 29,56 Z" id="Shape" fill="#8D6C9F"></path>
            <path d="M29,48 C28.449,48 28,48.449 28,49 L28,51 C28,51.551 28.449,52 29,52 C29.551,52 30,51.551 30,51 L30,49 C30,48.449 29.551,48 29,48 Z" id="Path" fill="#8D6C9F"></path>
            <path d="M35,48.078 C34.844,47.566 34.305,47.266 33.785,47.406 C33.262,47.547 32.949,48.074 33.07,48.601 L33.59,50.531 C33.738,51.066 34.289,51.383 34.824,51.234 C35.359,51.089 35.676,50.535 35.531,50 L35,48.078 Z" id="Path" fill="#8D6C9F"></path>
            <path d="M19.75,45.52 C19.52,45.387 19.246,45.352 18.988,45.418 C18.73,45.488 18.511,45.66 18.379,45.891 L17.379,47.621 C17.184,47.93 17.172,48.324 17.352,48.644 C17.532,48.964 17.872,49.16 18.239,49.156 C18.606,49.152 18.942,48.945 19.11,48.621 L20.11,46.891 C20.247,46.661 20.282,46.387 20.215,46.129 C20.148,45.875 19.98,45.652 19.75,45.52 Z" id="Path" fill="#8D6C9F"></path>
            <path d="M39.621,45.891 C39.449,45.567 39.113,45.36 38.746,45.356 C38.379,45.348 38.039,45.547 37.859,45.868 C37.683,46.188 37.691,46.579 37.89,46.891 L38.89,48.621 C39.058,48.945 39.394,49.152 39.761,49.156 C40.128,49.16 40.468,48.965 40.648,48.644 C40.828,48.323 40.816,47.929 40.621,47.621 L39.621,45.891 Z" id="Path" fill="#8D6C9F"></path>
            <path d="M24.211,47.371 C23.676,47.23 23.133,47.547 22.988,48.078 L22.469,50 C22.364,50.348 22.453,50.73 22.711,50.992 C22.965,51.254 23.344,51.355 23.695,51.258 C24.046,51.161 24.316,50.875 24.398,50.52 L24.921,48.59 C25.059,48.059 24.742,47.512 24.211,47.371 Z" id="Path" fill="#8D6C9F"></path>
            <path d="M14.148,14.148 C18.925,9.394 25.683,7.211 32.339,8.269 C32.89,8.359 33.409,7.98 33.499,7.429 C33.589,6.878 33.21,6.359 32.659,6.269 C22.8,4.667 13.03,9.613 8.483,18.511 C3.941,27.406 5.66,38.219 12.738,45.27 C13.136,45.61 13.726,45.586 14.097,45.219 C14.468,44.848 14.488,44.258 14.148,43.86 C5.941,35.656 5.941,22.352 14.148,14.148 Z" id="Path" fill="#8D6C9F"></path>
            <path d="M45.262,12.738 C44.602,12.078 43.903,11.457 43.172,10.879 C42.734,10.59 42.149,10.684 41.828,11.094 C41.504,11.508 41.555,12.098 41.941,12.449 C42.609,12.976 43.246,13.547 43.851,14.148 C52.05,22.351 52.05,35.648 43.851,43.851 C43.566,44.093 43.441,44.476 43.527,44.843 C43.617,45.206 43.902,45.491 44.265,45.581 C44.632,45.667 45.015,45.546 45.261,45.261 C54.238,36.277 54.238,21.723 45.262,12.738 Z" id="Path" fill="#8D6C9F"></path>
            <path d="M36.0488302,33 L33.0488302,33 L33.0488302,19 C33.0488302,18.96875 33.0488302,18.941406 33.0488302,18.910156 C33.0214862,18.648438 32.8925802,18.40625 32.6894552,18.238281 L32.6191432,18.171875 L32.5371112,18.171875 L32.3496112,18.089844 L32.1503932,18.089844 L32.0488302,18 L31.7480492,18 L31.5800802,18.070313 L31.4199242,18.179688 L31.2089862,18.390625 L21.2089862,33.390625 C20.9707052,33.699219 20.9316432,34.117188 21.1152362,34.464844 C21.2949242,34.808594 21.6582052,35.019531 22.0488302,35 L31.0488302,35 L31.0488302,40 C31.0488302,40.550781 31.4980492,41 32.0488302,41 C32.5996112,41 33.0488302,40.550781 33.0488302,40 L33.0488302,35 L36.0488302,35 C36.5996112,35 37.0488302,34.550781 37.0488302,34 C37.0488302,33.449219 36.5996112,33 36.0488302,33 Z M31.0488302,33 L23.9199242,33 L31.0488302,22.300781 L31.0488302,33 Z" id="Shape" fill="#FAEFDE"></path>
        </g>
    </g>
</svg>