<svg xmlns="http://www.w3.org/2000/svg" width="31" height="36" viewBox="0 0 31 36">
  <g fill="none" transform="translate(.52)">
    <path fill="#EFD8BE" d="M26.48,26.7876901 C26.8297143,26.9244667 27.2165714,27 27.6228571,27 C29.2005714,27 30.48,25.857303 30.48,24.4481977 C30.48,23.4019588 29.3371429,22.4067559 28.1942857,23.4274768"/>
    <path fill="#8D6C9F" d="M27.1463029,28 C26.5145673,28 26.2628732,27.8005599 25.9506169,27.4956057 C25.8822761,27.4297356 25.8044899,27.3528872 25.7017009,27.2681099 C25.4566741,27.0656203 25.4072243,26.6832077 25.5911333,26.4142381 C25.7750422,26.1452685 26.1245248,26.0915965 26.3689959,26.2928663 C26.5006769,26.4020399 26.6012435,26.4990154 26.6884752,26.5844025 C26.8823853,26.7728642 26.8896083,26.7801831 27.1463029,26.7801831 C28.3719922,26.7801831 29.3687676,25.6860074 29.3687676,24.3405494 C29.3687676,23.87092 29.1315195,23.3951914 28.8292643,23.257962 C28.6097959,23.1591568 28.3631024,23.2573521 28.0947398,23.5519379 C27.8774938,23.7904121 27.5263444,23.7904121 27.3090985,23.5519379 C27.0918526,23.3134637 27.0918526,22.9280015 27.3090985,22.6895273 C27.8997185,22.0418046 28.6097959,21.8380952 29.2548663,22.1308512 C29.9760561,22.458982 30.48,23.3677455 30.48,24.3405494 C30.48,26.3587364 28.9848369,28 27.1463029,28 Z"/>
    <path fill="#EFD8BE" d="M3.48,26.7876901 C3.13028571,26.9244667 2.74342857,27 2.33714286,27 C0.759428571,27 -0.52,25.857303 -0.52,24.4481977 C-0.52,23.4019588 0.622857143,22.4067559 1.76571429,23.4274768"/>
    <path fill="#8D6C9F" d="M3.81369706,28 C1.97516313,28 0.48,26.3586629 0.48,24.3403854 C0.48,23.3675379 0.983943872,22.4587336 1.70513367,22.1305882 C2.35075967,21.8384289 3.05972591,22.0415375 3.65090152,22.6892893 C3.86814745,22.9277742 3.86814745,23.3132536 3.65090152,23.5517385 C3.4336556,23.7902234 3.08250617,23.7902234 2.86526025,23.5517385 C2.59689763,23.2571395 2.35020405,23.15772 2.13073566,23.2577495 C1.82848046,23.394985 1.59123235,23.8707349 1.59123235,24.3403854 C1.59123235,25.6859037 2.58800777,26.7801285 3.81369706,26.7801285 C4.07039173,26.7801285 4.07761474,26.7728092 4.27152479,26.5837292 C4.35875653,26.4983382 4.45932306,26.4013584 4.59100409,26.2921799 C4.83603083,26.0909011 5.18495778,26.1451853 5.36886674,26.4135571 C5.55277569,26.6825388 5.50332585,27.0649685 5.25829912,27.2674672 C5.15495451,27.3522482 5.07772386,27.4291001 5.00938307,27.4949732 C4.69712678,27.800551 4.44543265,28 3.81369706,28 Z"/>
    <ellipse cx="14.98" cy="19" fill="#FAEFDE" rx="13.5" ry="14"/>
    <path fill="#8D6C9F" d="M15.48,33 C7.76075,33 1.48,26.71925 1.48,19 C1.48,11.28075 7.76075,5 15.48,5 C23.19925,5 29.48,11.28075 29.48,19 C29.48,26.71925 23.19925,33 15.48,33 Z M15.48,6.16666667 C8.40358333,6.16666667 2.64666667,11.9235833 2.64666667,19 C2.64666667,26.0764167 8.40358333,31.8333333 15.48,31.8333333 C22.5564167,31.8333333 28.3133333,26.0764167 28.3133333,19 C28.3133333,11.9235833 22.5564167,6.16666667 15.48,6.16666667 Z"/>
    <path fill="#8D6C9F" d="M11.0627368 2.64672222C10.7614737 2.64672222 10.4955789 2.43833333 10.4418947 2.14194444L10.2221053.938055556C10.1608421.605611111 10.3907368.289055556 10.7343158.230388889 11.0766316.167444444 11.4050526.393555556 11.4656842.726L11.6854737 1.92988889C11.7467368 2.26233333 11.5168421 2.57888889 11.1732632 2.63755556 11.136 2.64366667 11.0987368 2.64672222 11.0627368 2.64672222zM8.11642105 3.59333333C7.88463158 3.59333333 7.66105263 3.46927778 7.55052632 3.25477778L6.98652632 2.16088889C6.83052632 1.859 6.95747368 1.49172222 7.26947368 1.34138889 7.584 1.18983333 7.96168421 1.31388889 8.11642105 1.61516667L8.68042105 2.70905556C8.83642105 3.01094444 8.70947368 3.37822222 8.39747368 3.52855556 8.30652632 3.57316667 8.21052632 3.59333333 8.11642105 3.59333333zM5.56989474 5.30933333C5.40189474 5.30933333 5.23452632 5.24516667 5.10947368 5.11683333L4.24421053 4.22644444C4.00547368 3.98077778 4.01810526 3.59394444 4.272 3.36294444 4.524 3.13194444 4.92442105 3.14294444 5.16442105 3.38983333L6.02968421 4.28022222C6.26842105 4.52588889 6.25578947 4.91272222 6.00189474 5.14372222 5.88126316 5.25433333 5.72526316 5.30933333 5.56989474 5.30933333zM3.64231579 7.66272222C3.53431579 7.66272222 3.42505263 7.63583333 3.32526316 7.57961111L2.23326316 6.96544444C1.93136842 6.79616667 1.82905263 6.42155556 2.00526316 6.13005556 2.18021053 5.83794444 2.568 5.74016667 2.86863158 5.90944444L3.96063158 6.52361111C4.26252632 6.69288889 4.36484211 7.0675 4.18863158 7.359 4.07115789 7.55394444 3.85957895 7.66272222 3.64231579 7.66272222zM2.48147368 10.4481667C2.43221053 10.4481667 2.38231579 10.4426667 2.33242105 10.4310556L1.10526316 10.1438333C.766736842 10.0643889.558315789 9.73438889.640421053 9.40622222.722526316 9.07866667 1.06421053 8.87516667 1.40273684 8.95644444L2.62989474 9.24366667C2.96842105 9.32311111 3.17684211 9.65311111 3.09473684 9.98127778 3.02463158 10.2599444 2.76631579 10.4481667 2.48147368 10.4481667z" transform="translate(2.48 7)"/>
    <path fill="#F7A1C8" d="M9.48,27.7404738 C9.48,27.6435636 9.48774312,27.54604 9.49548625,27.4491298 C9.63724496,26.0249176 10.5795235,25 12.0018757,25 C12.5266212,25 13.3712172,25.3496128 13.7887503,25.6133558 C14.5892701,26.118761 15.3707299,26.118761 16.1712497,25.6133558 C16.5887828,25.3496128 17.4333788,25 17.9581243,25 C19.3804765,25 20.322755,26.0249176 20.4645138,27.4491298 C20.4722569,27.54604 20.48,27.6435636 20.48,27.7404738 C20.48,27.837384 20.4722569,27.9349076 20.4645138,28.0318178 C20.3233507,31.0256076 17.9265562,33 14.98,33 C12.0334438,33 9.63724496,31.0256076 9.49548625,28.0318178 C9.48774312,27.9349076 9.48,27.837384 9.48,27.7404738 Z"/>
    <path fill="#8D6C9F" d="M15.48,34 C11.6172,34 9.48,30.8074 9.48,28.6 C9.48,26.4808 10.7136,25 12.48,25 C13.2618,25 13.8198,25.372 14.313,25.7008 C14.715,25.9684 15.0618,26.2 15.48,26.2 C15.8982,26.2 16.245,25.9684 16.647,25.7008 C17.1402,25.372 17.6982,25 18.48,25 C20.2464,25 21.48,26.4808 21.48,28.6 C21.48,30.8074 19.3428,34 15.48,34 Z M12.48,26.2 C11.3868,26.2 10.68,27.142 10.68,28.6 C10.68,30.1078 12.2844,32.8 15.48,32.8 C18.6756,32.8 20.28,30.1078 20.28,28.6 C20.28,27.142 19.5732,26.2 18.48,26.2 C18.0618,26.2 17.715,26.4316 17.313,26.6992 C16.8198,27.028 16.2618,27.4 15.48,27.4 C14.6982,27.4 14.1402,27.028 13.647,26.6992 C13.245,26.4316 12.8982,26.2 12.48,26.2 Z"/>
    <path fill="#8D6C9F" d="M14.98 36C12.4987034 36 10.48 34.0368194 10.48 31.6237689 10.48 30.2347724 11.135604 28.9590127 12.2797469 28.1232763 12.5588215 27.9201886 12.9549684 27.9743453 13.1656982 28.2457443 13.3751624 28.5171432 13.3188412 28.9030098 13.0397666 29.1073283 12.2170975 29.7085908 11.7456448 30.6255623 11.7456448 31.6237689 11.7456448 33.3580143 13.1967065 34.7691658 14.98 34.7691658 16.7632935 34.7691658 18.2143552 33.3580143 18.2143552 31.6237689 18.2143552 30.6255623 17.7429025 29.7085908 16.9202334 29.1073283 16.6411588 28.9030098 16.5848376 28.5171432 16.7943018 28.2457443 17.0050316 27.9737299 17.4018113 27.9195732 17.6802531 28.1232763 18.824396 28.9590127 19.48 30.2353878 19.48 31.6237689 19.48 34.0368194 17.4612966 36 14.98 36zM15.105 6C14.759375 6 14.48 5.72832253 14.48 5.39222042 14.48 2.67119125 16.6475 0 18.855 0 19.200625 0 19.48.271677472 19.48.607779579 19.48.943881686 19.200625 1.21555916 18.855 1.21555916 17.33625 1.21555916 15.73 3.36223663 15.73 5.39222042 15.73 5.72832253 15.450625 6 15.105 6z"/>
    <path fill="#8D6C9F" d="M15.0027048 6C14.7387605 6 14.5254095 5.74807149 14.5254095 5.43640154 14.5254095 4.15590584 14.1946439 2.92951559 13.5684326 1.89024002 13.4156981 1.63662072 13.4658141 1.28437168 13.6801197 1.10402017 13.8953798.924232262 14.1936894.9834101 14.3459465 1.23590221 15.0881406 2.46736485 15.48 3.92032168 15.48 5.43640154 15.48 5.74807149 15.266649 6 15.0027048 6zM11.88 23C11.5482 23 11.28 22.702 11.28 22.3333333 11.28 21.2306667 10.4724 20.3333333 9.48 20.3333333 8.4876 20.3333333 7.68 21.2306667 7.68 22.3333333 7.68 22.702 7.4118 23 7.08 23 6.7482 23 6.48 22.702 6.48 22.3333333 6.48 20.4953333 7.8258 19 9.48 19 11.1342 19 12.48 20.4953333 12.48 22.3333333 12.48 22.702 12.2118 23 11.88 23zM23.88 23C23.5482 23 23.28 22.702 23.28 22.3333333 23.28 21.2306667 22.4724 20.3333333 21.48 20.3333333 20.4876 20.3333333 19.68 21.2306667 19.68 22.3333333 19.68 22.702 19.4118 23 19.08 23 18.7482 23 18.48 22.702 18.48 22.3333333 18.48 20.4953333 19.8258 19 21.48 19 23.1342 19 24.48 20.4953333 24.48 22.3333333 24.48 22.702 24.2118 23 23.88 23z"/>
  </g>
</svg>
