<svg xmlns="http://www.w3.org/2000/svg" width="21" height="36" viewBox="0 0 21 36">
  <g fill="none" transform="translate(-.44)">
    <path fill="#FFF" d="M15.24,35 L5.64,35 C3.88,35 2.44,33.575 2.44,31.8333333 L2.44,16 L18.44,16 L18.44,31.8333333 C18.44,33.575 17,35 15.24,35 Z"/>
    <path fill="#FFF0B3" d="M13.04,5.82142857 L13.04,3.25 C13.04,1.99642857 12.11,1 10.94,1 C9.77,1 8.84,1.99642857 8.84,3.25 L8.84,5.82142857 C7.52,5.82142857 6.44,6.97857143 6.44,8.39285714 L6.44,10 L15.44,10 L15.44,8.39285714 C15.44,6.97857143 14.36,5.82142857 13.04,5.82142857 Z"/>
    <path fill="#444B54" d="M6.36589511,8 C6.21063729,8 6.05537947,7.97 5.90012165,7.88 C5.46539974,7.64 5.31014192,7.07 5.55855444,6.65 C6.17958573,5.63 7.29744205,5 8.50845307,5 C9.03632966,5 9.44,5.39 9.44,5.9 C9.44,6.41 9.03632966,6.8 8.50845307,6.8 C7.9495249,6.8 7.45269987,7.1 7.17323579,7.55 C6.9869264,7.85 6.67641076,8 6.36589511,8 Z"/>
    <path fill="#444B54" d="M12.54,6 C12.03,6 11.64,5.62857143 11.64,5.14285714 L11.64,2.85714286 C11.64,2.22857143 11.1,1.71428571 10.44,1.71428571 C9.78,1.71428571 9.24,2.22857143 9.24,2.85714286 L9.24,5.14285714 C9.24,5.62857143 8.85,6 8.34,6 C7.83,6 7.44,5.62857143 7.44,5.14285714 L7.44,2.85714286 C7.44,1.28571429 8.79,0 10.44,0 C12.09,0 13.44,1.28571429 13.44,2.85714286 L13.44,5.14285714 C13.44,5.62857143 13.05,6 12.54,6 Z"/>
    <path fill="#91F2BD" d="M20.44,16 L1.44,16 L1.44,13.2727273 C1.44,12.8090909 1.8383871,12.4545455 2.35935484,12.4545455 L3.27870968,12.4545455 L3.27870968,10.8181818 C3.27870968,10.3545455 3.67709677,10 4.19806452,10 L17.6819355,10 C18.2029032,10 18.6012903,10.3545455 18.6012903,10.8181818 L18.6012903,12.4545455 L19.5206452,12.4545455 C20.0416129,12.4545455 20.44,12.8090909 20.44,13.2727273 L20.44,16 Z"/>
    <path fill="#6DC289" d="M19.44,12.4545455 C19.44,11.9909091 19.05,11.6363636 18.54,11.6363636 L17.64,11.6363636 L17.64,10.8181818 C17.64,10.3545455 17.25,10 16.74,10 L13.92,10 L13.74,10 L13.74,11.6363636 L8.34,11.6363636 C7.83,11.6363636 7.44,11.9909091 7.44,12.4545455 C7.44,12.9181818 7.83,13.2727273 8.34,13.2727273 L15.24,13.2727273 L15.24,16 L19.44,16 L19.44,13.2727273 C19.44,13.1090909 19.38,12.9727273 19.32,12.8636364 C19.38,12.7545455 19.44,12.6181818 19.44,12.4545455 Z"/>
    <path fill="#444B54" d="M19.5870588,11.7613636 L19.5870588,10.8409091 C19.5870588,9.82840909 18.7532353,9 17.7341176,9 L4.14588235,9 C3.12676471,9 2.29294118,9.82840909 2.29294118,10.8409091 L2.29294118,11.7613636 C1.27382353,11.7613636 0.44,12.5897727 0.44,13.6022727 L0.44,16.6704545 C0.44,17.1920455 0.841470588,17.5909091 1.36647059,17.5909091 L17.7341176,17.5909091 L17.7341176,32.0113636 C17.7341176,33.2079545 16.7767647,34.1590909 15.5723529,34.1590909 L6.30764706,34.1590909 C5.10323529,34.1590909 4.14588235,33.2079545 4.14588235,32.0113636 L4.14588235,19.7386364 C4.14588235,19.2170455 3.74441176,18.8181818 3.21941176,18.8181818 C2.69441176,18.8181818 2.29294118,19.2170455 2.29294118,19.7386364 L2.29294118,32.0113636 C2.29294118,34.2204545 4.08411765,36 6.30764706,36 L15.5723529,36 C17.7958824,36 19.5870588,34.2204545 19.5870588,32.0113636 L19.5870588,17.5909091 L20.5135294,17.5909091 C21.0385294,17.5909091 21.44,17.1920455 21.44,16.6704545 L21.44,13.6022727 C21.44,12.5897727 20.6061765,11.7613636 19.5870588,11.7613636 Z M19.5870588,15.75 L2.29294118,15.75 L2.29294118,13.6022727 L3.21941176,13.6022727 C3.74441176,13.6022727 4.14588235,13.2034091 4.14588235,12.6818182 L4.14588235,10.8409091 L17.7341176,10.8409091 L17.7341176,12.6818182 C17.7341176,13.2034091 18.1355882,13.6022727 18.6605882,13.6022727 L19.5870588,13.6022727 L19.5870588,15.75 Z"/>
    <path fill="#C3DBEA" d="M8.5025,31.0909091 L6.315,31.0909091 L6.315,28.2272727 L8.5025,28.2272727 C9.03375,28.2272727 9.44,27.8136364 9.44,27.2727273 C9.44,26.7318182 9.03375,26.3181818 8.5025,26.3181818 L6.315,26.3181818 L6.315,23.4545455 L8.5025,23.4545455 C9.03375,23.4545455 9.44,23.0409091 9.44,22.5 C9.44,21.9590909 9.03375,21.5454545 8.5025,21.5454545 L6.315,21.5454545 L6.315,19.9545455 C6.315,19.4136364 5.90875,19 5.3775,19 C4.84625,19 4.44,19.4136364 4.44,19.9545455 L4.44,32.0454545 C4.44,32.5863636 4.84625,33 5.3775,33 L8.5025,33 C9.03375,33 9.44,32.5863636 9.44,32.0454545 C9.44,31.5045455 9.03375,31.0909091 8.5025,31.0909091 Z"/>
    <path fill="#444B54" d="M15.5141049,8 C15.2035892,8 14.8930736,7.85 14.7067642,7.55 C14.4273001,7.1 13.9304751,6.8 13.3715469,6.8 C12.8436703,6.8 12.44,6.41 12.44,5.9 C12.44,5.39 12.8436703,5 13.3715469,5 C14.582558,5 15.7314658,5.63 16.3214456,6.65 C16.5698581,7.07 16.4146003,7.64 15.9798784,7.88 C15.8556721,7.97 15.6693627,8 15.5141049,8 Z"/>
  </g>
</svg>
