<svg xmlns="http://www.w3.org/2000/svg" width="22" height="36" viewBox="0 0 22 36">
  <g fill="none" transform="translate(-.16)">
    <path fill="#454B54" d="M11.16,36 C5.09674699,36 0.16,31.0722902 0.16,24.9947814 L0.16,14.8765506 C0.16,13.9567114 0.491325301,13.0368723 1.12084337,12.3469929 C1.4853012,11.9199247 2.11481928,11.8870733 2.51240964,12.2484387 C2.94313253,12.6098041 2.97626506,13.2339807 2.61180723,13.6281975 C2.31361446,13.9567114 2.14795181,14.416631 2.14795181,14.8765506 L2.14795181,24.96193 C2.14795181,29.9553426 6.19012048,33.9960647 11.16,33.9960647 C16.1298795,33.9960647 20.1720482,29.9553426 20.1720482,24.96193 L20.1720482,14.8765506 C20.1720482,14.416631 20.0063855,13.9895628 19.7081928,13.6281975 C19.3437349,13.2011293 19.3768675,12.6098041 19.8075904,12.2484387 C20.2383133,11.8870733 20.8346988,11.9199247 21.1991566,12.3469929 C21.8286747,13.0368723 22.16,13.9567114 22.16,14.8765506 L22.16,24.96193 C22.16,31.0394388 17.223253,36 11.16,36 Z"/>
    <path fill="#F0D6BF" d="M10.66,4 C14.7881513,4 18.16,7.56666667 18.16,12 C18.16,16.4333333 14.7881513,20 10.66,20 C6.53184874,20 3.16,16.4333333 3.16,12 C3.16,7.56666667 6.53184874,4 10.66,4"/>
    <path fill="#CEBAAA" d="M8.16 12C7.61454545 12 7.16 12.4545455 7.16 13 7.16 13.5454545 7.61454545 14 8.16 14 8.70545455 14 9.16 13.5454545 9.16 13 9.16 12.4545455 8.70545455 12 8.16 12M14.16 12C13.6145455 12 13.16 12.4545455 13.16 13 13.16 13.5454545 13.6145455 14 14.16 14 14.7054545 14 15.16 13.5454545 15.16 13 15.16 12.4545455 14.7054545 12 14.16 12"/>
    <path fill="#454B54" d="M10.66,20 C5.96597015,20 2.16,16.1907407 2.16,11.5 C2.16,6.80925926 5.96597015,3 10.66,3 C15.3540299,3 19.16,6.80925926 19.16,11.5 C19.16,16.1907407 15.3540299,20 10.66,20 Z M10.66,4.92037037 C7.04432836,4.92037037 4.06298507,7.87962963 4.06298507,11.5314815 C4.06298507,15.1833333 7.01261194,18.1425926 10.66,18.1425926 C14.3073881,18.1425926 17.2570149,15.1833333 17.2570149,11.5314815 C17.2570149,7.87962963 14.2756716,4.92037037 10.66,4.92037037 Z"/>
    <path fill="#C7D7E2" d="M10.66,35 C5.40668874,35 1.16,30.5014925 1.16,24.9850746 L1.16,14.8716418 C1.16,14.1820896 1.41165563,13.4925373 1.82059603,13 L20.16,23.4746269 L20.16,24.9850746 C20.16,30.5014925 15.9133113,35 10.66,35 L10.66,35 Z"/>
    <path fill="#FFF" d="M10.66,35 C15.9133113,35 20.16,30.5014925 20.16,24.9850746 L20.16,14.8716418 C20.16,14.1820896 19.9083444,13.4925373 19.499404,13 L1.16,23.4746269 L1.16,24.9850746 C1.16,30.5014925 5.40668874,35 10.66,35 L10.66,35 Z"/>
    <g fill="#454B54" transform="translate(.16)">
      <path d="M11,35.7405405 C5.07941176,35.7405405 0.258823529,30.8756757 0.258823529,24.8756757 L0.258823529,14.8864865 C0.258823529,13.9783784 0.582352941,13.0702703 1.19705882,12.3891892 C1.48823529,12.0324324 2.00588235,11.9675676 2.39411765,12.1621622 L8.54117647,15.5351351 C9.02647059,15.7945946 9.18823529,16.3783784 8.92941176,16.8648649 C8.67058824,17.3513514 8.08823529,17.5135135 7.60294118,17.2540541 L2.29705882,14.3351351 C2.23235294,14.4972973 2.2,14.6918919 2.2,14.8864865 L2.2,24.8432432 C2.2,29.772973 6.14705882,33.7621622 11,33.7621622 C15.8529412,33.7621622 19.8,29.772973 19.8,24.8432432 L19.8,23.3513514 C19.8,22.8 20.2205882,22.3783784 20.7705882,22.3783784 C21.3205882,22.3783784 21.7411765,22.8 21.7411765,23.3513514 L21.7411765,24.8432432 C21.7411765,30.8432432 16.9205882,35.7405405 11,35.7405405 L11,35.7405405 Z"/>
      <path d="M11 35.7405405C5.07941176 35.7405405.258823529 30.8756757.258823529 24.8756757.258823529 24.3243243.679411765 23.9027027 1.22941176 23.9027027 1.77941176 23.9027027 2.2 24.3243243 2.2 24.8756757 2.2 29.8054054 6.14705882 33.7945946 11 33.7945946 15.8529412 33.7945946 19.8 29.8054054 19.8 24.8756757L19.8 14.8864865C19.8 14.6918919 19.7676471 14.4972973 19.7029412 14.3351351L4.36764706 22.7675676C3.88235294 23.027027 3.3 22.8648649 3.04117647 22.3783784 2.78235294 21.8918919 2.94411765 21.3081081 3.42941176 21.0486486L19.6058824 12.1945946C19.9941176 11.9675676 20.5117647 12.0648649 20.8029412 12.4216216 21.4176471 13.1027027 21.7411765 14.0108108 21.7411765 14.9189189L21.7411765 24.8756757C21.7411765 30.8432432 16.9205882 35.7405405 11 35.7405405L11 35.7405405zM11 4.83243243C10.45 4.83243243 10.0294118 4.41081081 10.0294118 3.85945946 10.0294118 1.75135135 11.7117647.0648648649 13.7823529.0648648649 14.3323529.0648648649 14.7529412.486486486 14.7529412 1.03783784 14.7529412 1.58918919 14.3323529 2.01081081 13.7823529 2.01081081 12.7794118 2.01081081 11.9705882 2.85405405 11.9705882 3.85945946 11.9705882 4.37837838 11.55 4.83243243 11 4.83243243z"/>
    </g>
  </g>
</svg>
