<?xml version="1.0" encoding="utf-8"?>
<!-- Generator: Adobe Illustrator 21.1.0, SVG Export Plug-In . SVG Version: 6.00 Build 0)  -->
<svg xmlns="http://www.w3.org/2000/svg" xmlns:xlink="http://www.w3.org/1999/xlink" version="1.1" id="Layer_1" x="0px" y="0px" viewBox="0 0 128 128" style="enable-background:new 0 0 128 128;" xml:space="preserve" width="64px" height="64px">

<g>
	<g>
		<g>
			<g>
				<path d="M97.8,44.6c5.7-9.9,2-22.6-8.3-27.8c-9.4-4.8-21.1-1.3-26.4,7.9c-3.3,5.7-3.4,12.2-1.1,17.8      c2.1,5,0.8,10.7-3.4,14.1l-0.1,0.1l15.6,9l0-0.4c0.3-5.4,4.2-9.9,9.6-10.8C89.4,53.4,94.6,50,97.8,44.6z" style="fill:#FFF0B3;"/>
			</g>
		</g>
	</g>
	<g>
		<g>
			<g>
				<path d="M74.8,24.8c-1.2,0-2.3-0.7-2.8-1.8c-0.7-1.5,0-3.3,1.6-3.9c2.9-1.3,6.2-1.7,9.3-1.3      c1.6,0.2,2.8,1.7,2.6,3.4c-0.2,1.6-1.7,2.8-3.4,2.6c-2-0.3-4.1,0-6.1,0.8C75.6,24.8,75.2,24.8,74.8,24.8z" style="fill:#FFFFFF;"/>
			</g>
		</g>
	</g>
	<g>
		<g>
			<g>
				<path d="M68.3,30.6c-0.5,0-0.9-0.1-1.3-0.3c-1.5-0.7-2.1-2.5-1.3-4c0.5-1,1.6-1.7,2.7-1.7c1.7,0,3,1.3,3,3      c0,0.6-0.2,1.1-0.4,1.6C70.3,30.1,69.3,30.6,68.3,30.6z" style="fill:#FFFFFF;"/>
			</g>
		</g>
	</g>
	<g>
		<g>
			<g>
				<path d="M67.9,67.3c-0.3,0-0.7-0.1-1-0.2c-1.6-0.6-2.4-2.3-1.8-3.8l1.7-4.7c1.9-5.3,5.7-9.5,10.5-11.7      c1.6-0.7,3.2-1.2,4.9-1.5c3.3-0.5,6.1-2.5,7.7-5.3c0.8-1.4,2.7-1.9,4.1-1.1s1.9,2.7,1.1,4.1c-2.6,4.4-6.9,7.4-12,8.3      c-1.2,0.2-2.3,0.5-3.4,1c-3.3,1.5-6,4.5-7.3,8.2l-1.7,4.7C70.3,66.6,69.1,67.3,67.9,67.3z" style="fill:#F2B630;"/>
			</g>
		</g>
	</g>
	<g>
		<g>
			<g>
				<path d="M83.1,88.1l-48.5-28c-2.9-1.7-3.9-5.3-2.2-8.2l0,0c1.7-2.9,5.3-3.9,8.2-2.2l12.6,7.3l35.9,20.7      c2.9,1.7,3.9,5.3,2.2,8.2v0C89.6,88.8,85.9,89.7,83.1,88.1z" style="fill:#91F2BD;"/>
			</g>
		</g>
	</g>
	<g>
		<g>
			<g>
				<g>
					<path d="M88.8,77.6L83,74.2c-2.9-1.7-6.5-0.7-8.2,2.2l0,0c-1.7,2.9-0.7,6.5,2.2,8.2l6.1,3.5       c2.9,1.7,6.7,0.6,8.3-2.4C92.9,82.8,91.7,79.2,88.8,77.6z" style="fill:#6DC289;"/>
				</g>
			</g>
		</g>
	</g>
	<g>
		<g>
			<path d="M102.5,28.1c-1.8-6.1-6-11.1-11.7-14c-10.7-5.4-24.3-1.4-30.3,9c-3.6,6.3-4.1,13.8-1.2,20.5     c1,2.3,1,4.9,0.1,7.1c-0.6,1.5,0.1,3.3,1.7,3.9c1.5,0.6,3.3-0.1,3.9-1.7c1.5-3.7,1.4-7.9-0.2-11.7c-2.1-5-1.8-10.5,0.9-15.1     c4.4-7.7,14.5-10.7,22.4-6.7c4.2,2.1,7.3,5.8,8.6,10.3c1.3,4.5,0.8,9.3-1.6,13.3c-2.6,4.4-6.9,7.4-12,8.3     c-6.3,1-11.1,6.2-12,12.6L42.1,47.1c-4.3-2.5-9.8-1-12.3,3.3c-1.2,2.1-1.5,4.5-0.9,6.8s2.1,4.3,4.2,5.5l10.9,6.3     c-0.4,0.1-0.7,0.1-1.1,0.2c-5.9,1.6-10.9,5.4-14,10.7c-6.3,11-2.6,25.1,8.4,31.4c3.6,2.1,7.6,3.1,11.5,3.1c8,0,15.7-4.1,20-11.5     c3.4-5.8,3.9-12.5,2-18.5l10.8,6.3c1.4,0.8,3,1.2,4.5,1.2c3.1,0,6.1-1.6,7.8-4.5c2.5-4.3,1-9.8-3.3-12.3L77,67.3l0.1-1.9     c0.2-4,3.2-7.4,7.1-8c6.8-1.1,12.7-5.2,16.2-11.2C103.5,40.6,104.3,34.2,102.5,28.1z M63.5,99.9c-4.7,8.1-15.1,10.9-23.2,6.2     c-8.1-4.7-10.9-15.1-6.2-23.2c3.1-5.4,8.9-8.5,14.8-8.5c0.6,0,1.1,0,1.7,0.1c-0.2,0.2-0.3,0.4-0.5,0.6c-0.8,1.4-0.3,3.3,1.1,4.1     l6.1,3.5c0.5,0.3,1,0.4,1.5,0.4c1,0,2-0.5,2.6-1.5c0.2-0.4,0.3-0.8,0.4-1.2C66.3,85.7,67.2,93.5,63.5,99.9z M88.7,84.4     c-0.4,0.7-1,1.2-1.8,1.4s-1.6,0.1-2.3-0.3l-48.5-28c-0.7-0.4-1.2-1-1.4-1.8c-0.2-0.8-0.1-1.6,0.3-2.3c0.8-1.4,2.7-1.9,4.1-1.1     l48.5,28C89,81.1,89.5,82.9,88.7,84.4z" style="fill:#444B54;"/>
		</g>
	</g>
</g>
</svg>
