<svg height="58" viewBox="0 0 34 58" width="34" xmlns="http://www.w3.org/2000/svg"><g fill="none"><path d="m24.5 56.5h-15c-2.75 0-5-2.25-5-5v-25h25v25c0 2.75-2.25 5-5 5z" fill="#fff"/><path d="m20.5 9v-4c0-1.95-1.55-3.5-3.5-3.5s-3.5 1.55-3.5 3.5v4c-2.2 0-4 1.8-4 4v2.5h15v-2.5c0-2.2-1.8-4-4-4z" fill="#fff0b3"/><path d="m10.05 12.5c-.25 0-.5-.05-.75-.2-.7-.4-.95-1.35-.55-2.05 1-1.7 2.8-2.75 4.75-2.75.85 0 1.5.65 1.5 1.5s-.65 1.5-1.5 1.5c-.9 0-1.7.5-2.15 1.25-.3.5-.8.75-1.3.75z" fill="#444b54"/><path d="m20.5 10.5c-.85 0-1.5-.65-1.5-1.5v-4c0-1.1-.9-2-2-2s-2 .9-2 2v4c0 .85-.65 1.5-1.5 1.5s-1.5-.65-1.5-1.5v-4c0-2.75 2.25-5 5-5s5 2.25 5 5v4c0 .85-.65 1.5-1.5 1.5z" fill="#444b54"/><path d="m32.5 26.5h-31v-5c0-.85.65-1.5 1.5-1.5h1.5v-3c0-.85.65-1.5 1.5-1.5h22c.85 0 1.5.65 1.5 1.5v3h1.5c.85 0 1.5.65 1.5 1.5z" fill="#91f2bd"/><path d="m32.5 20c0-.85-.65-1.5-1.5-1.5h-1.5v-1.5c0-.85-.65-1.5-1.5-1.5h-4.7-.3v3h-9c-.85 0-1.5.65-1.5 1.5s.65 1.5 1.5 1.5h11.5v5h7v-5c0-.3-.1-.55-.2-.75.1-.2.2-.45.2-.75z" fill="#6dc289"/><path d="m31 18.5v-1.5c0-1.65-1.35-3-3-3h-22c-1.65 0-3 1.35-3 3v1.5c-1.65 0-3 1.35-3 3v5c0 .85.65 1.5 1.5 1.5h26.5v23.5c0 1.95-1.55 3.5-3.5 3.5h-15c-1.95 0-3.5-1.55-3.5-3.5v-20c0-.85-.65-1.5-1.5-1.5s-1.5.65-1.5 1.5v20c0 3.6 2.9 6.5 6.5 6.5h15c3.6 0 6.5-2.9 6.5-6.5v-23.5h1.5c.85 0 1.5-.65 1.5-1.5v-5c0-1.65-1.35-3-3-3zm0 6.5h-28v-3.5h1.5c.85 0 1.5-.65 1.5-1.5v-3h22v3c0 .85.65 1.5 1.5 1.5h1.5z" fill="#444b54"/><path d="m12.5 49h-3.5v-4.5h3.5c.85 0 1.5-.65 1.5-1.5s-.65-1.5-1.5-1.5h-3.5v-4.5h3.5c.85 0 1.5-.65 1.5-1.5s-.65-1.5-1.5-1.5h-3.5v-2.5c0-.85-.65-1.5-1.5-1.5s-1.5.65-1.5 1.5v19c0 .85.65 1.5 1.5 1.5h5c.85 0 1.5-.65 1.5-1.5s-.65-1.5-1.5-1.5z" fill="#c3dbea"/><path d="m23.95 12.5c-.5 0-1-.25-1.3-.75-.45-.75-1.25-1.25-2.15-1.25-.85 0-1.5-.65-1.5-1.5s.65-1.5 1.5-1.5c1.95 0 3.8 1.05 4.75 2.75.4.7.15 1.65-.55 2.05-.2.15-.5.2-.75.2z" fill="#444b54"/></g></svg>