<svg enable-background="new 0 0 128 128" height="512" viewBox="0 0 128 128" width="512" xmlns="http://www.w3.org/2000/svg"><path d="m64 121.2c-18.3 0-33.2-15-33.2-33.5v-30.8c0-2.8 1-5.6 2.9-7.7 1.1-1.3 3-1.4 4.2-.3 1.3 1.1 1.4 3 .3 4.2-.9 1-1.4 2.4-1.4 3.8v30.7c0 15.2 12.2 27.5 27.2 27.5s27.2-12.3 27.2-27.5v-30.7c0-1.4-.5-2.7-1.4-3.8-1.1-1.3-1-3.1.3-4.2s3.1-1 4.2.3c1.9 2.1 2.9 4.9 2.9 7.7v30.7c0 18.5-14.9 33.6-33.2 33.6z" fill="#454b54"/><path d="m64 22.8c13.1 0 23.8 10.7 23.8 24s-10.7 24-23.8 24-23.8-10.7-23.8-24 10.7-24 23.8-24" fill="#f0d6bf"/><path d="m56.5 45.5c-1.8 0-3.3 1.5-3.3 3.3s1.5 3.3 3.3 3.3 3.3-1.5 3.3-3.3-1.5-3.3-3.3-3.3" fill="#cebaaa"/><path d="m73.1 45.5c-1.8 0-3.3 1.5-3.3 3.3s1.5 3.3 3.3 3.3 3.3-1.5 3.3-3.3-1.5-3.3-3.3-3.3" fill="#cebaaa"/><path d="m64 73.8c-14.8 0-26.8-12.1-26.8-27s12-27 26.8-27 26.8 12.1 26.8 27-12 27-26.8 27zm0-47.9c-11.4 0-20.8 9.4-20.8 21s9.3 21 20.8 21 20.8-9.4 20.8-21-9.4-21-20.8-21z" fill="#454b54"/><path d="m64 118.2c-16.7 0-30.2-13.7-30.2-30.5v-30.8c0-2.1.8-4.2 2.1-5.7l58.3 31.9v4.6c0 16.8-13.5 30.5-30.2 30.5z" fill="#c7d7e2"/><path d="m64 118.2c16.7 0 30.2-13.7 30.2-30.5v-30.8c0-2.1-.8-4.2-2.1-5.7l-58.3 31.9v4.6c0 16.8 13.5 30.5 30.2 30.5z" fill="#fff"/><g fill="#454b54"><path d="m64 121.2c-18.3 0-33.2-15-33.2-33.5v-30.8c0-2.8 1-5.6 2.9-7.7.9-1.1 2.5-1.3 3.7-.7l19 10.4c1.5.8 2 2.6 1.2 4.1s-2.6 2-4.1 1.2l-16.4-9c-.2.5-.3 1.1-.3 1.7v30.7c0 15.2 12.2 27.5 27.2 27.5s27.2-12.3 27.2-27.5v-4.6c0-1.7 1.3-3 3-3s3 1.3 3 3v4.6c0 18.5-14.9 33.6-33.2 33.6z"/><path d="m64 121.2c-18.3 0-33.2-15-33.2-33.5 0-1.7 1.3-3 3-3s3 1.3 3 3c0 15.2 12.2 27.5 27.2 27.5s27.2-12.3 27.2-27.5v-30.8c0-.6-.1-1.2-.3-1.7l-47.4 26c-1.5.8-3.3.3-4.1-1.2s-.3-3.3 1.2-4.1l50-27.3c1.2-.7 2.8-.4 3.7.7 1.9 2.1 2.9 4.9 2.9 7.7v30.7c0 18.4-14.9 33.5-33.2 33.5z"/><path d="m64 25.9c-1.7 0-3-1.3-3-3 0-6.5 5.2-11.7 11.6-11.7 1.7 0 3 1.3 3 3s-1.3 3-3 3c-3.1 0-5.6 2.6-5.6 5.7 0 1.6-1.3 3-3 3z"/></g></svg>