<?xml version="1.0" encoding="utf-8"?>
<!-- Generator: Adobe Illustrator 21.1.0, SVG Export Plug-In . SVG Version: 6.00 Build 0)  -->
<svg xmlns="http://www.w3.org/2000/svg" xmlns:xlink="http://www.w3.org/1999/xlink" version="1.1" id="Layer_1" x="0px" y="0px" viewBox="0 0 128 128" style="enable-background:new 0 0 128 128;" xml:space="preserve" width="64px" height="64px">

<g>
	<g>
		<g>
			<g>
				<g>
					<path d="M64,114L64,114c-22.1,0-40-17.9-40-40V44h80v30C104,96.1,86.1,114,64,114z" style="fill:#FFFFFF;"/>
				</g>
			</g>
		</g>
	</g>
	<g>
		<g>
			<g>
				<path d="M37.6,104c7.1,6.2,16.3,10,26.4,10h0c10.1,0,19.4-3.8,26.4-10L74,100H55L37.6,104z" style="fill:#C3DBEA;"/>
			</g>
		</g>
	</g>
	<g>
		<g>
			<g>
				<circle cx="29" cy="69" r="5" style="fill:#C3DBEA;"/>
			</g>
		</g>
	</g>
	<g>
		<g>
			<g>
				<circle cx="50" cy="80" r="5" style="fill:#C3DBEA;"/>
			</g>
		</g>
	</g>
	<g>
		<g>
			<g>
				<circle cx="60" cy="98" r="5" style="fill:#C3DBEA;"/>
			</g>
		</g>
	</g>
	<g>
		<g>
			<g>
				<circle cx="73" cy="86" r="5" style="fill:#C3DBEA;"/>
			</g>
		</g>
	</g>
	<g>
		<g>
			<g>
				<circle cx="99" cy="80" r="5" style="fill:#C3DBEA;"/>
			</g>
		</g>
	</g>
	<g>
		<g>
			<g>
				<path d="M105.9,54.8c-0.7-0.6-1.6-0.8-2.5-0.6l-4,0.9c-1.3,0.3-2.2,1.3-2.3,2.6c-10.7-3.4-21.8-5.2-33-5.2      c-7.1,0-14.3,0.7-21.2,2.1c-1.6,0.3-2.7,1.9-2.4,3.5s1.9,2.7,3.5,2.4c6.6-1.3,13.3-2,20-2c10.6,0,21,1.6,31,4.8l0,2.7      c0,1.7,1.3,3,3,3c0,0,0,0,0,0c1.6,0,4.3,0,6,0c0,0,0,0,0,0c1.7,0,3-1.3,3-3l0-8.9C107,56.2,106.6,55.4,105.9,54.8z M101,60.9      C101,60.9,101,60.9,101,60.9L101,60.9L101,60.9z" style="fill:#C3DBEA;"/>
			</g>
		</g>
	</g>
	<g>
		<g>
			<g>
				<path d="M104.7,37.2c-26.1-10.3-55.3-10.3-81.4,0c-2.6,1-4.3,3.6-4.3,6.4l0,5.5v0c0,4.7,4.6,8,9,6.5      c23.3-8,48.7-8,72,0c4.4,1.5,9-1.8,9-6.5v0l0-5.5C109,40.8,107.3,38.2,104.7,37.2z" style="fill:#FFFFFF;"/>
			</g>
		</g>
	</g>
	<g>
		<g>
			<g>
				<path d="M104.7,37.2c-26.1-10.3-55.3-10.3-81.4,0c-2.6,1-4.3,3.6-4.3,6.4l0,5.5v0c0,4.7,4.6,8,9,6.5      c23.3-8,48.7-8,72,0c4.4,1.5,9-1.8,9-6.5v0l0-5.5C109,40.8,107.3,38.2,104.7,37.2z" style="fill:#FFFFFF;"/>
			</g>
		</g>
	</g>
	<g>
		<g>
			<g>
				<path d="M104.7,37.2c-0.1,0-0.1,0-0.2-0.1c-5.3-2.1-11.1,1.8-11.1,7.5v2.9c0,3.5,2.2,6.6,5.5,7.6      c0.3,0.1,0.7,0.2,1,0.3c4.4,1.5,9-1.8,9-6.5l0-5.5C109,40.8,107.3,38.2,104.7,37.2z" style="fill:#C3DBEA;"/>
			</g>
		</g>
	</g>
	<g>
		<g>
			<g>
				<path d="M102.2,58.8c-1.1,0-2.2-0.2-3.2-0.5c-1.8-0.6-3.6-1.2-5.5-1.7c-1.2-0.4-2.1-1.5-2.2-2.7L91,46.1      c-0.1-1.7,1.2-3.1,2.8-3.1c1.6-0.1,3.1,1.2,3.1,2.8l0.3,5.6c1.2,0.4,2.5,0.8,3.7,1.2c1.2,0.4,2.4,0.2,3.4-0.5      c1-0.7,1.6-1.9,1.6-3.1v-5.5c0-1.6-1-3-2.4-3.6c-3.1-1.2-6.3-2.3-9.4-3.2c-1.6-0.5-2.5-2.1-2-3.7c0.5-1.6,2.1-2.5,3.7-2      c3.4,1,6.7,2.1,10,3.4c3.8,1.5,6.2,5.1,6.2,9.1V49c0,3.2-1.5,6.2-4.1,8C106.2,58.2,104.2,58.8,102.2,58.8z" style="fill:#444B54;"/>
			</g>
		</g>
	</g>
	<g>
		<g>
			<g>
				<path d="M44,54.3c-1.4,0-2.7-1-2.9-2.5c-0.3-1.6,0.8-3.2,2.4-3.5c13.3-2.4,26.8-2.5,40.1-0.2      c1.6,0.3,2.7,1.8,2.4,3.5c-0.3,1.6-1.8,2.7-3.5,2.4c-12.6-2.2-25.4-2.1-37.9,0.2C44.4,54.3,44.2,54.3,44,54.3z" style="fill:#444B54;"/>
			</g>
		</g>
	</g>
	<g>
		<g>
			<g>
				<path d="M25.8,58.8c-2,0-4-0.6-5.7-1.8c-2.6-1.8-4.1-4.8-4.1-8v-5.5c0-4.1,2.4-7.7,6.2-9.1c3.6-1.4,7.3-2.7,11-3.7      c1.6-0.4,3.3,0.5,3.7,2.1c0.4,1.6-0.5,3.3-2.1,3.7c-3.5,1-7,2.2-10.4,3.5C23,40.6,22,42,22,43.5V49c0,1.3,0.6,2.4,1.6,3.1      c1,0.7,2.3,0.9,3.4,0.5c1.3-0.4,2.6-0.9,4-1.3V46c0-1.7,1.3-3,3-3s3,1.3,3,3v7.6c0,1.3-0.9,2.5-2.2,2.9      c-1.9,0.5-3.9,1.2-5.8,1.8C27.9,58.7,26.8,58.8,25.8,58.8z" style="fill:#444B54;"/>
			</g>
		</g>
	</g>
	<g>
		<g>
			<g>
				<path d="M44,34.3c-1.4,0-2.7-1-2.9-2.5c-0.3-1.6,0.8-3.2,2.4-3.5c13.3-2.4,26.8-2.5,40.1-0.2      c1.6,0.3,2.7,1.8,2.4,3.5c-0.3,1.6-1.8,2.7-3.5,2.4c-12.6-2.2-25.4-2.1-37.9,0.2C44.4,34.3,44.2,34.3,44,34.3z" style="fill:#444B54;"/>
			</g>
		</g>
	</g>
	<g>
		<g>
			<g>
				<g>
					<path d="M56,98c0-8.8-7.2-16-16-16c-5.4,0-10.2,2.7-13.1,6.9C30.9,99,39,107.1,49.1,111.1       C53.3,108.2,56,103.4,56,98z" style="fill:#7EB3CE;"/>
				</g>
			</g>
		</g>
		<g>
			<g>
				<g>
					<path d="M88,82c-8.8,0-16,7.2-16,16c0,5.4,2.7,10.2,6.9,13.1C89,107.1,97.1,99,101.1,88.9       C98.2,84.7,93.4,82,88,82z" style="fill:#7EB3CE;"/>
				</g>
			</g>
		</g>
	</g>
	<g>
		<g>
			<path d="M107,74V64c0-1.7-1.3-3-3-3s-3,1.3-3,3v10c0,3.2-0.4,6.2-1.2,9.2C96.5,80.5,92.4,79,88,79     c-10.5,0-19,8.5-19,19c0,4.4,1.5,8.5,4.2,11.8c-2.9,0.8-6,1.2-9.2,1.2s-6.2-0.4-9.2-1.2c2.7-3.3,4.2-7.5,4.2-11.8     c0-10.5-8.5-19-19-19c-1.7,0-3,1.3-3,3s1.3,3,3,3c7.2,0,13,5.8,13,13c0,3.7-1.6,7.2-4.3,9.7C35.9,101.8,27,88.9,27,74V64     c0-1.7-1.3-3-3-3s-3,1.3-3,3v10c0,23.7,19.3,43,43,43c18,0,33.5-11.2,39.9-26.9c0-0.1,0.1-0.1,0.1-0.2     C105.9,84.9,107,79.6,107,74z M79.3,107.7c-2.7-2.5-4.3-6-4.3-9.7c0-7.2,5.8-13,13-13c3.7,0,7.2,1.6,9.7,4.3     C94,97.4,87.4,104,79.3,107.7z" style="fill:#444B54;"/>
		</g>
	</g>
	<g>
		<g>
			<g>
				<circle cx="79" cy="69" r="5" style="fill:#C3DBEA;"/>
			</g>
		</g>
	</g>
	<g>
		<g>
			<g>
				<circle cx="59" cy="59" r="5" style="fill:#C3DBEA;"/>
			</g>
		</g>
	</g>
</g>
</svg>
