<svg xmlns="http://www.w3.org/2000/svg" width="36" height="34" viewBox="0 0 36 34">
  <g fill="none">
    <path fill="#FFF" d="M18,32 L18,32 C9.7125,32 3,25.3514286 3,17.1428571 L3,6 L33,6 L33,17.1428571 C33,25.3514286 26.2875,32 18,32 Z"/>
    <path fill="#C3DBEA" d="M8,29.4285714 C10.6893939,31.6428571 14.1742424,33 18,33 L18,33 C21.8257576,33 25.3484848,31.6428571 28,29.4285714 L21.7878788,28 L14.5909091,28 L8,29.4285714 Z"/>
    <circle cx="5" cy="16" r="2" fill="#C3DBEA"/>
    <circle cx="13" cy="20" r="2" fill="#C3DBEA"/>
    <circle cx="16" cy="27" r="2" fill="#C3DBEA"/>
    <circle cx="21" cy="22" r="2" fill="#C3DBEA"/>
    <circle cx="31" cy="20" r="2" fill="#C3DBEA"/>
    <path fill="#C3DBEA" d="M33.586773,10.8363636 C33.3238104,10.6181818 32.9857156,10.5454545 32.6476208,10.6181818 L31.1449773,10.9454545 C30.6566181,11.0545455 30.3185233,11.4181818 30.2809572,11.8909091 C26.2613858,10.6545455 22.0915499,10 17.884148,10 C15.2169558,10 12.5121974,10.2545455 9.92013728,10.7636364 C9.31907986,10.8727273 8.90585289,11.4545455 9.01855115,12.0363636 C9.13124942,12.6181818 9.73230684,13.0181818 10.3333643,12.9090909 C12.8127261,12.4363636 15.329654,12.1818182 17.8465819,12.1818182 C21.8285873,12.1818182 25.7354605,12.7636364 29.4920694,13.9272727 L29.4920694,14.9090909 C29.4920694,15.5272727 29.9804285,16 30.619052,16 C30.619052,16 30.619052,16 30.619052,16 C31.2201095,16 32.2343938,16 32.8730173,16 C32.8730173,16 32.8730173,16 32.8730173,16 C33.5116408,16 34,15.5272727 34,14.9090909 L34,11.6727273 C34,11.3454545 33.8497356,11.0545455 33.586773,10.8363636 Z"/>
    <path fill="#FFF" d="M33.3755556,3.91611265 C23.5155556,0.0279624516 12.4844444,0.0279624516 2.62444444,3.91611265 C1.64222222,4.29360296 1,5.27507776 1,6.33205063 L1,8.40824734 L1,8.40824734 C1,10.1824518 2.73777778,11.4281698 4.4,10.8619344 C13.2022222,7.84201187 22.7977778,7.84201187 31.6,10.8619344 C33.2622222,11.4281698 35,10.1824518 35,8.40824734 L35,8.40824734 L35,6.33205063 C35,5.27507776 34.3577778,4.29360296 33.3755556,3.91611265 Z"/>
    <path fill="#FFF" d="M33.3755556,3.91611265 C23.5155556,0.0279624516 12.4844444,0.0279624516 2.62444444,3.91611265 C1.64222222,4.29360296 1,5.27507776 1,6.33205063 L1,8.40824734 L1,8.40824734 C1,10.1824518 2.73777778,11.4281698 4.4,10.8619344 C13.2022222,7.84201187 22.7977778,7.84201187 31.6,10.8619344 C33.2622222,11.4281698 35,10.1824518 35,8.40824734 L35,8.40824734 L35,6.33205063 C35,5.27507776 34.3577778,4.29360296 33.3755556,3.91611265 Z"/>
    <path fill="#C3DBEA" d="M33.3730125,4.24596709 C33.3343133,4.24596709 33.3343133,4.24596709 33.2956141,4.20958809 C31.2445551,3.44562908 29,4.8644101 29,6.93801313 L29,7.99300415 C29,9.26626916 29.851383,10.3940182 31.1284574,10.7578082 C31.2445551,10.7941872 31.399352,10.8305662 31.5154497,10.8669452 C33.2182156,11.4126302 34.99838,10.2121232 34.99838,8.50231015 L34.99838,6.50146513 C35.0370792,5.55561111 34.3791924,4.6097571 33.3730125,4.24596709 Z"/>
    <path fill="#444B54" d="M32.2676279 12C31.8486882 12 31.4297485 11.9212548 31.0488942 11.803137 30.3633564 11.5669014 29.6778187 11.3306657 28.9541955 11.1338027 28.4971704 10.9763123 28.1544015 10.5432137 28.1163161 10.0707424L28.0020598 6.99967931C27.9639744 6.33034504 28.4590849 5.77912859 29.0684518 5.77912859 29.6778187 5.73975599 30.2491001 6.25159984 30.2491001 6.8815615L30.3633564 9.08642731C30.8203816 9.24391773 31.3154922 9.40140815 31.7725173 9.55889856 32.2295425 9.71638898 32.6865676 9.63764377 33.0674219 9.36203554 33.4482762 9.08642731 33.6767888 8.61395607 33.6767888 8.14148482L33.6767888 5.97599161C33.6767888 5.34602995 33.2959345 4.79481349 32.7627385 4.55857787 31.5820902 4.08610662 30.3633564 3.65300798 29.1827081 3.29865455 28.5733412 3.10179153 28.2305724 2.47182987 28.4209995 1.8418682 28.6114267 1.21190654 29.2207935.857553108 29.8301604 1.05441613 31.125065 1.44814217 32.3818842 1.88124081 33.6387034 2.39308466 35.0859497 2.98367372 36 4.40108746 36 5.97599161L36 8.14148482C36 9.40140815 35.4287186 10.5825863 34.4384974 11.2912931 33.7910451 11.7637644 33.0293365 12 32.2676279 12zM10.1142418 11C9.58533842 11 9.09421383 10.6185291 9.0186562 10.0463226 8.90531976 9.43596911 9.32088672 8.82561559 9.92534775 8.71117431 14.94993 7.79564403 20.05007 7.75749694 25.0746523 8.63488012 25.6791133 8.7493214 26.0946802 9.32152783 25.9813438 9.97002844 25.8680074 10.580382 25.3013251 11 24.6590853 10.8855587 19.8989547 10.0463226 15.0632665 10.0844697 10.3409147 10.9618529 10.2653571 11 10.1897994 11 10.1142418 11zM3.73333333 12C2.97142857 12 2.20952381 11.7659128 1.56190476 11.2977383.571428571 10.5954766 0 9.42504047 0 8.17657524L0 6.03077563C0 4.43117956.914285714 3.02665618 2.36190476 2.48045264 3.73333333 1.9342491 5.14285714 1.4270601 6.55238095 1.03691472 7.16190476.880856566 7.80952381 1.23198741 7.96190476 1.85622003 8.11428571 2.48045264 7.77142857 3.14369979 7.16190476 3.29975794 5.82857143 3.68990333 4.4952381 4.15807779 3.2 4.66526679 2.66666667 4.89935402 2.28571429 5.44555755 2.28571429 6.03077563L2.28571429 8.17657524C2.28571429 8.68376424 2.51428571 9.11292416 2.8952381 9.38602593 3.27619048 9.6591277 3.77142857 9.73715677 4.19047619 9.58109862 4.68571429 9.42504047 5.18095238 9.22996778 5.71428571 9.07390962L5.71428571 7.00613909C5.71428571 6.34289194 6.20952381 5.83570294 6.85714286 5.83570294 7.5047619 5.83570294 8 6.34289194 8 7.00613909L8 9.97124401C8 10.478433 7.65714286 10.9466075 7.16190476 11.1026656 6.43809524 11.2977383 5.67619048 11.5708401 4.95238095 11.8049273 4.53333333 11.9609855 4.11428571 12 3.73333333 12zM10.1142418 3C9.58533842 3 9.09421383 2.61852905 9.0186562 2.04632263 8.90531976 1.43596911 9.32088672.825615593 9.92534775.711174308 14.94993-.204355968 20.05007-.242503063 25.0746523.634880119 25.6791133.749321403 26.0946802 1.32152783 25.9813438 1.97002844 25.8680074 2.58038196 25.3013251 3 24.6590853 2.88555872 19.8989547 2.04632263 15.0632665 2.08446972 10.3409147 2.96185291 10.2653571 3 10.1897994 3 10.1142418 3z"/>
    <path fill="#7EB3CE" d="M11.4473684 5.86666667C11.4473684 2.64 8.7 0 5.34210526 0 3.28157895 0 1.45.99.343421053 2.53 1.86973684 6.23333333 4.96052632 9.20333333 8.81447368 10.67 10.4171053 9.60666667 11.4473684 7.84666667 11.4473684 5.86666667zM23.6578947 0C20.3 0 17.5526316 2.64 17.5526316 5.86666667 17.5526316 7.84666667 18.5828947 9.60666667 20.1855263 10.67 24.0394737 9.20333333 27.1302632 6.23333333 28.6565789 2.53 27.55.99 25.7184211 0 23.6578947 0z" transform="translate(3 21)"/>
    <path fill="#444B54" d="M34,17.875 L34,14.125 C34,13.4875 33.5162791,13 32.8837209,13 C32.2511628,13 31.7674419,13.4875 31.7674419,14.125 L31.7674419,17.875 C31.7674419,19.075 31.6186047,20.2 31.3209302,21.325 C30.0930233,20.3125 28.5674419,19.75 26.9302326,19.75 C23.0232558,19.75 19.8604651,22.9375 19.8604651,26.875 C19.8604651,28.525 20.4186047,30.0625 21.4232558,31.3 C20.344186,31.6 19.1906977,31.75 18,31.75 C16.8093023,31.75 15.6930233,31.6 14.5767442,31.3 C15.5813953,30.0625 16.1395349,28.4875 16.1395349,26.875 C16.1395349,22.9375 12.9767442,19.75 9.06976744,19.75 C8.4372093,19.75 7.95348837,20.2375 7.95348837,20.875 C7.95348837,21.5125 8.4372093,22 9.06976744,22 C11.7488372,22 13.9069767,24.175 13.9069767,26.875 C13.9069767,28.2625 13.3116279,29.575 12.3069767,30.5125 C7.54418605,28.3 4.23255814,23.4625 4.23255814,17.875 L4.23255814,14.125 C4.23255814,13.4875 3.74883721,13 3.11627907,13 C2.48372093,13 2,13.4875 2,14.125 L2,17.875 C2,26.7625 9.18139535,34 18,34 C24.6976744,34 30.4651163,29.8 32.8465116,23.9125 C32.8465116,23.875 32.8837209,23.875 32.8837209,23.8375 C33.5906977,21.9625 34,19.975 34,17.875 Z M23.6930233,30.5125 C22.6883721,29.575 22.0930233,28.2625 22.0930233,26.875 C22.0930233,24.175 24.2511628,22 26.9302326,22 C28.3069767,22 29.6093023,22.6 30.5395349,23.6125 C29.1627907,26.65 26.7069767,29.125 23.6930233,30.5125 Z"/>
    <circle cx="23" cy="16" r="2" fill="#C3DBEA"/>
    <circle cx="16" cy="12" r="2" fill="#C3DBEA"/>
  </g>
</svg>
