<svg xmlns="http://www.w3.org/2000/svg" width="27" height="35" viewBox="0 0 27 35">
  <g fill="none" transform="translate(-.68 -1)">
    <path fill="#FFF0B3" d="M24.7874444,11.5601609 C26.6885241,8.06943067 25.4544899,3.59142324 22.0192055,1.75790838 C18.8840916,0.0654331295 14.9818753,1.29952967 13.2142047,4.54344056 C12.1135796,6.55325492 12.0802273,8.84514849 12.8473297,10.819703 C13.5477274,12.582698 13.1141479,14.5925124 11.7133523,15.791349 L11.68,15.8266089 L16.882955,19 L16.882955,18.8589604 C16.9830119,16.9549257 18.2837506,15.3682302 20.0847735,15.0508911 C21.9858532,14.6630322 23.7201716,13.4641955 24.7874444,11.5601609 Z"/>
    <path fill="#FFF" d="M16.7932298 4C16.3582169 4 15.9594551 3.80415398 15.7781998 3.49639594 15.5244423 3.0767259 15.7781998 2.57312184 16.3582169 2.40525383 17.409498 2.04153979 18.6057834 1.92962777 19.7295666 2.04153979 20.3095838 2.09749579 20.7445966 2.51716584 20.6720945 2.99279189 20.5995923 3.44043994 20.0558262 3.77617598 19.439558 3.72021997 18.7145366 3.63628596 17.9532641 3.72021997 17.2282426 3.94404399 17.0832383 4 16.9382341 4 16.7932298 4zM14.6561399 6C14.4910012 6 14.3588902 5.96666667 14.2267793 5.9 13.7313631 5.66666667 13.5331966 5.06666667 13.7974186 4.56666667 13.9625573 4.23333333 14.3258625 4 14.6891677 4 15.2506393 4 15.68 4.43333333 15.68 5 15.68 5.2 15.6139445 5.36666667 15.547889 5.53333333 15.3166948 5.83333333 14.9864174 6 14.6561399 6z"/>
    <path fill="#F2B630" d="M14.7588168,19 C14.6509066,19 14.5070265,18.9651347 14.3991164,18.9302694 C13.8235958,18.7210775 13.5358355,18.1283671 13.7516557,17.6053873 L14.3631464,15.9667174 C15.0465771,14.1188556 16.4134385,12.6545123 18.1400003,11.8874753 C18.7155209,11.6434181 19.2910415,11.4690915 19.9025321,11.3644956 C21.0895433,11.190169 22.0967044,10.4928627 22.672225,9.51663378 C22.9599853,9.02851934 23.643416,8.85419276 24.1469965,9.13311529 C24.650577,9.41203783 24.8304272,10.0744788 24.5426669,10.5625933 C23.6074459,12.0966672 22.0607343,13.1426267 20.2262624,13.4564146 C19.794622,13.5261452 19.3989516,13.6307412 19.0032812,13.8050678 C17.8162699,14.3280475 16.8450789,15.374007 16.3774684,16.6640238 L15.7659778,18.3026937 C15.6220977,18.7559428 15.1904572,19 14.7588168,19 Z"/>
    <path fill="#91F2BD" d="M19.5488061,26.7252736 L2.73058982,16.9289209 C1.72496451,16.3341423 1.37819717,15.0746113 1.96770166,14.059989 L1.96770166,14.059989 C2.55720615,13.0453668 3.80556859,12.6954971 4.81119389,13.2902756 L9.18046246,15.8443247 L21.6294102,23.0866283 C22.6350355,23.6814069 22.9818028,24.9409379 22.3922983,25.9555602 L22.3922983,25.9555602 C21.8027939,26.9701824 20.5197547,27.2850652 19.5488061,26.7252736 Z"/>
    <path fill="#6DC289" d="M21.6019083,23.3616857 L19.6769112,22.2671006 C18.7144126,21.719808 17.5195867,22.0417448 16.9553634,22.9753615 L16.9553634,22.9753615 C16.3911401,23.9089782 16.7230362,25.0679507 17.6855348,25.6152432 L19.7101008,26.742022 C20.6725993,27.2893146 21.9338044,26.9351841 22.4648381,25.9693737 C22.9626822,25.035757 22.5644069,23.8767845 21.6019083,23.3616857 Z"/>
    <path fill="#444B54" d="M27.3504086,6.5899763 C26.7242368,4.51116814 25.2631692,2.80722702 23.2802918,1.81894117 C19.5580482,-0.021315238 14.8269722,1.34183766 12.7397328,4.88603518 C11.4873892,7.03300099 11.3134525,9.58891267 12.3222849,11.8721938 C12.6701582,12.6560067 12.6701582,13.5420561 12.3570722,14.2917902 C12.1483483,14.8029725 12.3918596,15.4163913 12.9484567,15.6208642 C13.4702666,15.8253372 14.0964384,15.5867854 14.3051624,15.0415242 C14.8269722,13.7806078 14.7921849,12.3492973 14.2355877,11.054302 C13.5050539,9.35036091 13.6094159,7.47602568 14.5486736,5.90839985 C16.0793158,3.28433053 19.5928355,2.26196586 22.341034,3.62511875 C23.8021016,4.34077402 24.8805086,5.60169045 25.3327438,7.13523746 C25.7849791,8.66878446 25.6110424,10.3045679 24.7761467,11.6677208 C23.8716763,13.167189 22.3758214,14.1895537 20.6016679,14.4962631 C18.4100665,14.8370513 16.740275,16.6091501 16.4271891,18.7901947 L6.33886531,13.0649525 C4.84301041,12.212982 2.92970762,12.7241643 2.06002454,14.1895537 C1.64257666,14.905209 1.53821469,15.7231007 1.74693863,16.5069136 C1.95566257,17.2907265 2.47747242,17.972303 3.20800621,18.3812488 L6.99982445,20.5282146 C6.86067516,20.5622935 6.75631319,20.5622935 6.6171639,20.5963723 C4.56471182,21.1416334 2.82534565,22.4366287 1.74693863,24.2428063 C-0.444662741,27.9914767 0.842468222,32.7965907 4.66907379,34.9435565 C5.92141743,35.6592118 7.31291036,36 8.66961597,36 C11.4526018,36 14.1312257,34.6027683 15.6270806,32.0809354 C16.8098496,30.1043637 16.9837862,27.8210826 16.3228271,25.7763533 L20.079858,27.9233191 C20.5668806,28.1959497 21.1234777,28.332265 21.6452876,28.332265 C22.7236946,28.332265 23.7673143,27.7870038 24.3586988,26.798718 C25.2283819,25.3333286 24.706572,23.4589934 23.2107171,22.6070228 L18.4796412,19.9488747 L18.5144285,19.301377 C18.5840031,17.9382241 19.6276228,16.7795442 20.9843284,16.5750713 C23.3498664,16.2002042 25.4023185,14.8029725 26.6198748,12.7582431 C27.6982818,10.8498291 27.9765804,8.66878446 27.3504086,6.5899763 Z M13.7833525,31.0585708 C12.1483483,33.8189554 8.53046668,34.7731624 5.71269349,33.1714577 C2.8949203,31.5697531 1.92087525,28.0255556 3.55587944,25.265171 C4.63428647,23.4249145 6.65195122,22.3684711 8.7044033,22.3684711 C8.91312724,22.3684711 9.08706385,22.3684711 9.29578779,22.4025499 C9.22621315,22.4707075 9.19142582,22.5388652 9.12185118,22.6070228 C8.84355259,23.0841263 9.01748921,23.7316239 9.50451173,24.0042545 L11.6265385,25.1970133 C11.8004751,25.2992498 11.9744117,25.3333286 12.1483483,25.3333286 C12.4962215,25.3333286 12.8440948,25.1629345 13.0528187,24.8221463 C13.1223934,24.685831 13.1571807,24.5495157 13.191968,24.4132004 C14.7573976,26.219378 15.0704835,28.8775261 13.7833525,31.0585708 Z M22.549758,25.7763533 C22.4106087,26.014905 22.2018847,26.1852992 21.9235862,26.2534568 C21.6452876,26.3216144 21.366989,26.2875356 21.1234777,26.1512203 L4.25162591,16.6091501 C4.00811465,16.4728348 3.83417803,16.2683619 3.76460338,15.9957313 C3.69502874,15.7231007 3.72981606,15.4504701 3.86896535,15.2119184 C4.14726394,14.7348148 4.80822308,14.5644207 5.29524561,14.8370513 L22.1670974,24.3791216 C22.65412,24.6517522 22.8280566,25.265171 22.549758,25.7763533 Z"/>
  </g>
</svg>
